# xmcd
#
# Track frame offsets: 
#        225
#        4084
#        21588
#        36087
#        47171
#        79029
#        94166
#        105868
#        122059
#        134783
#        138975
#        157103
#        171765
#        184236
#        201678
#        223070
#        240471
#        248522
#        260964
#        273221
#        284525
#        293662
#        307661
#
# Disc length: 4295 seconds
#
# Revision: 0
# Processed by: cddbd v1.5.1PL0 Copyright (c) Steve Scherf et al.
# Submitted via: ExactAudioCopy v0.95a5
#
DISCID=5710c417
DTITLE=Beatles - Complete Edition CD 8
DYEAR=1968
DGENRE=Oldies
TTITLE0=A beginning
TTITLE1=Don´t pass me by
TTITLE2=Goodnight
TTITLE3=Everybody has got something to hide except me and my monkey
TTITLE4=Hey Jude
TTITLE5=Not guilty
TTITLE6=What´s the new Mary Jane
TTITLE7=Rocky Raccoon
TTITLE8=Mother Nature´s Son
TTITLE9=Wild honey pie
TTITLE10=Yer blues
TTITLE11=Sexy Sadie
TTITLE12=Back in the USSR
TTITLE13=Dear Prudence
TTITLE14=While my guitar gently weeps
TTITLE15=Los Paranoias
TTITLE16=I will
TTITLE17=Birthday
TTITLE18=Honey Pie
TTITLE19=Martha my dear
TTITLE20=I´m so tired
TTITLE21=Long long long
TTITLE22=The continuing story of Bungalow Bill
EXTD=
EXTT0=
EXTT1=
EXTT2=
EXTT3=
EXTT4=
EXTT5=
EXTT6=
EXTT7=
EXTT8=
EXTT9=
EXTT10=
EXTT11=
EXTT12=
EXTT13=
EXTT14=
EXTT15=
EXTT16=
EXTT17=
EXTT18=
EXTT19=
EXTT20=
EXTT21=
EXTT22=
PLAYORDER=
